<?xml version="1.0" encoding="UTF-8"?>
<!DOCTYPE svg PUBLIC "-//W3C//DTD SVG 1.1//EN" "http://www.w3.org/Graphics/SVG/1.1/DTD/svg11.dtd">
<!-- Creator: CorelDRAW 2021 (64-Bit) -->
<svg xmlns="http://www.w3.org/2000/svg" xml:space="preserve" width="114.696mm" height="80.265mm" version="1.1" style="shape-rendering:geometricPrecision; text-rendering:geometricPrecision; image-rendering:optimizeQuality; fill-rule:evenodd; clip-rule:evenodd"
viewBox="0 0 10129.02 7088.33"
 xmlns:xlink="http://www.w3.org/1999/xlink"
 xmlns:xodm="http://www.corel.com/coreldraw/odm/2003">
 <defs>
  <style type="text/css">
   <![CDATA[
    .str0 {stroke:#FEFEFE;stroke-width:6.73;stroke-miterlimit:22.9256}
    .fil8 {fill:none}
    .fil6 {fill:#E62129}
    .fil2 {fill:#ACCE22}
    .fil3 {fill:#00A2E9}
    .fil0 {fill:#5F5D5D;fill-rule:nonzero}
    .fil7 {fill:#F08519;fill-rule:nonzero}
    .fil4 {fill:#ACCE22;fill-rule:nonzero}
    .fil1 {fill:#00A2E9;fill-rule:nonzero}
    .fil5 {fill:#009B4C;fill-rule:nonzero}
   ]]>
  </style>
 </defs>
 <g id="레이어_x0020_1">
  <metadata id="CorelCorpID_0Corel-Layer"/>
  <g id="_1998488588192">
   <path class="fil0" d="M2677.3 5592.33c-43.64,-74.07 -74.16,-143.98 -91.58,-209.74 -17.41,-65.77 -26.13,-128.76 -26.13,-189.01 0,-60.77 8.73,-124.18 26.13,-190.23 17.42,-66.05 47.94,-136.09 91.58,-210.13l-72.94 0c-28.75,43.65 -59.8,99.05 -93.25,166.19 -33.44,67.14 -50.15,145.2 -50.15,234.17 0,89.55 16.71,167.45 50.15,233.79 33.44,66.3 64.5,121.29 93.25,164.97l72.94 0zm483.18 -653.23l220.52 0 0 -82.05 -563.68 0 0 82.05 222.97 0c-6.08,19.35 -16.99,37.02 -32.74,53.05 -15.74,16.03 -34.95,31.22 -57.61,45.6 -27.62,17.13 -58.42,31.9 -92.41,44.36 -33.99,12.43 -60.93,20.86 -80.83,25.27l57.2 68.82c19.9,-4.44 44.32,-11.62 73.36,-21.57 29,-9.94 58.16,-23.5 87.45,-40.62 24.85,-14.35 46.28,-28.59 64.25,-42.68 17.96,-14.09 32.19,-28.07 42.68,-41.88 9.94,13.81 23.76,27.78 41.46,41.88 17.67,14.09 38.95,28.33 63.82,42.68 29.27,17.12 58.43,30.68 87.43,40.62 29.04,9.94 53.5,17.12 73.39,21.57l57.2 -68.82c-19.92,-4.41 -46.83,-12.84 -80.82,-25.27 -33.99,-12.46 -64.79,-27.23 -92.44,-44.36 -22.11,-14.39 -41.17,-29.58 -57.2,-45.6 -16.03,-16.03 -27.36,-33.7 -33.99,-53.05zm304.24 374.71l0 -82.09 -729.48 0 0 82.09 314.16 0 0 245.34 98.65 0 0 -245.34 316.67 0zm129.21 -520.59l-72.95 0c42.56,73.49 72.95,143.4 91.19,209.71 18.22,66.3 27.36,129.88 27.36,190.65 0,60.25 -8.98,123.25 -26.94,189.01 -17.96,65.76 -48.51,135.67 -91.61,209.74l72.95 0c29.28,-43.68 60.51,-98.66 93.66,-164.97 33.15,-66.34 49.73,-144.24 49.73,-233.79 0,-88.97 -16.58,-167.02 -49.73,-234.17 -33.15,-67.14 -64.38,-122.54 -93.66,-166.19zm971.86 765.93l0 -729.45 -96.18 0 0 729.45 96.18 0zm-164.13 -169.09l0 -83.72c-21.03,2.19 -46.45,4.83 -76.29,7.85 -29.84,3.06 -59.12,5.41 -87.84,7.06 -39.24,2.22 -76.95,3.31 -113.17,3.31 -36.18,0 -55.68,0 -58.42,0l0 -130.97 257.79 0 0 -87.84 -257.79 0 0 -117.71 268.57 0 0 -87.04 -364.75 0 0 509.8c4.44,0 39.94,-0.17 106.54,-0.42 66.57,-0.29 123.09,-1.8 169.51,-4.57 28.75,-1.64 56.36,-4.15 82.89,-7.47 26.52,-3.31 50.86,-6.08 72.97,-8.27zm477.35 -442.65c21.02,0 39.4,8.14 55.13,24.44 15.75,16.32 23.63,39.94 23.63,70.88 0,30.41 -7.89,53.88 -23.63,70.45 -15.74,16.58 -34.11,24.89 -55.13,24.89 -20.44,0 -38.69,-8.31 -54.69,-24.89 -16.03,-16.58 -24.05,-40.04 -24.05,-70.45 0,-30.39 7.86,-53.89 23.63,-70.46 15.74,-16.58 34.11,-24.85 55.11,-24.85zm169.96 41.43c-10.53,-39.24 -31.23,-70.59 -62.19,-94.09 -30.94,-23.46 -66.86,-35.21 -107.77,-35.21 -49.19,0 -90.9,16.99 -125.15,50.98 -34.28,33.99 -51.41,78.06 -51.41,132.2 0,53.62 17.12,97.56 51.41,131.8 34.25,34.26 75.96,51.41 125.15,51.41 43.68,0 81.53,-13.42 113.56,-40.2 32.06,-26.81 51.95,-62.03 59.71,-105.71l75.42 0 0 271.05 92.83 0 0 -508.96 -92.83 0 0 146.71 -78.73 0zm343.15 553.74l0 -83.73 -459.23 0 0 -146.71 -96.14 0 0 230.44 555.37 0zm-16.58 -177.39l0 -535.49 -92.83 0 0 535.49 92.83 0zm520.49 -210.54c0,-82.34 -18.22,-148.51 -54.73,-198.54 -36.46,-50.02 -85.91,-75.03 -148.35,-75.03 -61.9,0 -111.37,24.75 -148.39,74.2 -37.01,49.47 -55.56,115.91 -55.56,199.37 0,81.79 18.55,147.55 55.56,197.28 37.02,49.74 86.49,74.61 148.39,74.61 62.45,0 111.89,-24.88 148.35,-74.61 36.51,-49.73 54.73,-115.49 54.73,-197.28zm310.04 55.52l0 -91.99 -103.62 0 0 -288.47 -96.18 0 0 729.45 96.18 0 0 -348.99 103.62 0zm-405.35 -56.36c0,49.73 -9.27,93.42 -27.77,130.97 -18.51,37.59 -44.91,56.36 -79.19,56.36 -34.25,0 -61.19,-18.93 -80.82,-56.78 -19.61,-37.86 -29.42,-81.38 -29.42,-130.56 0,-48.63 9.81,-91.99 29.42,-130.14 19.63,-38.14 46.58,-57.2 80.82,-57.2 34.28,0 60.68,18.93 79.19,56.78 18.5,37.85 27.77,81.37 27.77,130.55zm689.57 -272.73c-61.9,0 -111.37,24.75 -148.39,74.2 -37.02,49.47 -55.52,115.91 -55.52,199.37 0,81.79 18.5,147.55 55.52,197.28 37.02,49.74 86.49,74.61 148.39,74.61 62.45,0 111.92,-24.88 148.39,-74.61 36.46,-49.73 54.68,-115.49 54.68,-197.28 0,-82.34 -18.22,-148.51 -54.68,-198.54 -36.47,-50.02 -85.94,-75.03 -148.39,-75.03zm426.91 678.08l0 -729.45 -95.34 0 0 729.45 95.34 0zm-318.3 -405.35c0,49.73 -9.41,93.42 -28.2,130.97 -18.8,37.59 -45.32,56.36 -79.57,56.36 -33.74,0 -60.39,-18.93 -79.99,-56.78 -19.63,-37.86 -29.45,-81.38 -29.45,-130.56 0,-48.63 9.82,-91.99 29.45,-130.14 19.61,-38.14 46.26,-57.2 79.99,-57.2 34.25,0 60.77,18.93 79.57,56.78 18.79,37.85 28.2,81.37 28.2,130.55zm1096.58 163.32l0 -487.43 -92.86 0 0 487.43 92.86 0zm-165.8 -75.44l0 -399.56 -92.83 0 0 111.92 -143.4 0 0 88.68 143.4 0 0 198.96 92.83 0zm-145.08 -38.95l0 -84.56c-15.45,2.77 -37.01,5.38 -64.63,7.86 -27.65,2.51 -51.41,4.02 -71.3,4.57l-82.08 0.84 0 -266.94 -96.14 0 0 353.98 172.43 -2.48c27.07,-1.13 54.01,-3.06 80.82,-5.83 26.78,-2.74 47.1,-5.25 60.9,-7.44zm317.51 290.11c-18.79,-4.41 -46.7,-14.48 -83.72,-30.26 -37.05,-15.74 -68.53,-34.66 -94.5,-56.78 -23.76,-20.99 -41.3,-42.27 -52.63,-63.83 -11.33,-21.53 -16.99,-43.93 -16.99,-67.14l0 -10.78 -114.4 0 0 10.78c0,23.21 -5.54,45.61 -16.58,67.14 -11.07,21.57 -28.75,42.84 -53.08,63.83 -25.95,22.11 -57.46,41.04 -94.48,56.78 -37.05,15.77 -64.95,25.85 -83.72,30.26l58 67.15c18.25,-4.42 40.75,-12.01 67.56,-22.79 26.81,-10.78 53.46,-25.3 79.99,-43.52 24.88,-17.67 46.7,-35.93 65.5,-54.72 18.8,-18.77 30.1,-33.7 33.99,-44.74 4.41,11.04 15.87,25.97 34.38,44.74 18.54,18.79 40.2,37.05 65.09,54.72 26.52,18.22 53.21,32.74 79.98,43.52 26.81,10.78 49.35,18.38 67.57,22.79l58.03 -67.15z"/>
   <path class="fil1" d="M4778.39 1890.67l0.32 -0.09c893.09,-217.79 1733.47,-288.89 2369.87,-227.74 655.22,62.97 1101.39,269.32 1183.01,604.05 81.6,334.56 -219.39,723.04 -771.9,1080.55 -536.29,347.02 -1313.96,670.49 -2206.02,888.37l-3.15 0.8c-893.17,217.81 -1733.54,288.96 -2369.96,227.79 -655.29,-62.96 -1101.48,-269.31 -1183.11,-604.04 -81.6,-334.63 219.39,-723.11 772.04,-1080.62 536.86,-347.37 1315.67,-671.19 2208.92,-889.08zm2359.62 -116.07c-624.8,-60.03 -1451.89,10.27 -2332.78,225.06l-0.33 0.1c-880.8,214.83 -1647.29,533.2 -2174.28,874.17 -511.34,330.8 -793.09,676.98 -724.08,960.04 68.98,282.93 478.45,460.46 1084.55,518.68 624.19,59.97 1450.24,-10.14 2330.14,-224.48l3.19 -0.77c880.77,-214.83 1647.14,-533.17 2174.1,-874.14 511.24,-330.82 792.96,-676.98 723.94,-959.98 -68.98,-282.9 -478.42,-460.45 -1084.46,-518.68z"/>
   <path class="fil2" d="M7905.84 2720.71c175.84,0 318.4,142.56 318.4,318.41 0,175.88 -142.56,318.44 -318.4,318.44 -175.88,0 -318.44,-142.56 -318.44,-318.44 0,-175.85 142.56,-318.41 318.44,-318.41z"/>
   <path class="fil3" d="M5211.48 3896.42c175.85,0 318.44,142.56 318.44,318.44 0,175.85 -142.6,318.41 -318.44,318.41 -175.84,0 -318.43,-142.56 -318.43,-318.41 0,-175.88 142.6,-318.44 318.43,-318.44z"/>
   <path class="fil3" d="M5137.99 1496.02c175.88,0 318.44,142.56 318.44,318.41 0,175.87 -142.56,318.43 -318.44,318.43 -175.85,0 -318.41,-142.56 -318.41,-318.43 0,-175.85 142.56,-318.41 318.41,-318.41z"/>
   <path class="fil4" d="M4778.61 4156.98c-893.45,-217.91 -1672.24,-541.76 -2209.14,-889.13 -552.64,-357.52 -853.64,-746.06 -772.04,-1080.66 81.66,-334.73 527.86,-541.08 1183.15,-604.02 634.69,-61 1472.16,9.56 2362.58,226l7.41 1.77c893.29,217.92 1672.12,541.76 2209.02,889.14 552.57,357.51 853.6,746.03 772,1080.62 -81.63,334.73 -527.79,541.08 -1183.05,604.04 -636.46,61.13 -1476.8,-9.98 -2369.93,-227.76zm26.37 -109.12c881.05,214.83 1708.13,285.12 2333.01,225.12 606.06,-58.22 1015.5,-235.75 1084.48,-518.68 69.02,-283.03 -212.73,-629.25 -724.04,-960.04 -525.9,-340.26 -1290.34,-658.03 -2168.85,-872.88l-5.47 -1.32c-881.03,-214.89 -1708.1,-285.16 -2332.98,-225.12 -606.1,58.2 -1015.57,235.71 -1084.58,518.65 -69.02,283.06 212.73,629.28 724.08,960.08 526.99,340.97 1293.48,659.34 2174.35,874.2z"/>
   <path class="fil2" d="M2394.66 3302.38c175.87,0 318.43,-142.56 318.43,-318.43 0,-175.85 -142.56,-318.41 -318.43,-318.41 -175.85,0 -318.41,142.56 -318.41,318.41 0,175.87 142.56,318.43 318.41,318.43z"/>
   <polygon class="fil1" points="4540.9,3388.65 4539.21,3388.65 4035.94,2689.37 3754.45,2689.37 3754.45,3783.58 4002.67,3783.58 4002.67,3066.11 4007.8,3066.11 4524.13,3783.58 4787.42,3783.58 4787.42,2689.37 4540.9,2689.37 "/>
   <polygon class="fil5" points="5874.85,2475.25 4940.91,2475.25 4940.91,3781.92 5903.27,3781.92 5903.27,3551.65 5201.89,3551.65 5201.89,3212.17 5818.27,3212.17 5818.27,2983.6 5201.89,2983.6 5201.89,2707.26 5874.85,2707.26 "/>
   <path class="fil6" d="M4669.62 2367.9c69.49,0 125.85,56.36 125.85,125.89 0,69.49 -56.36,125.85 -125.85,125.85 -69.53,0 -125.89,-56.36 -125.89,-125.85 0,-69.53 56.36,-125.89 125.89,-125.89z"/>
   <polygon class="fil0" points="4012.94,2689.51 4406.16,2689.51 4406.16,2458.06 3353.03,2458.06 3353.03,2689.51 3746.23,2689.51 3746.23,3783.58 4012.94,3783.58 "/>
   <polygon class="fil7" points="6566.06,2689.51 6959.3,2689.51 6959.3,2458.06 5906.15,2458.06 5906.15,2689.51 6299.36,2689.51 6299.36,3783.58 6566.06,3783.58 "/>
  </g>
  <rect class="fil8 str0" x="3.36" y="3.36" width="10122.29" height="7081.6"/>
 </g>
</svg>
